M48
;Layer_Color=9474304
;FILE_FORMAT=2:3
INCH,LZ
;TYPE=PLATED
T01F00S00C0.015
T02F00S00C0.017
T03F00S00C0.035
T04F00S00C0.040
T05F00S00C0.051
T06F00S00C0.137
%
T01
X063Y02625
X06375
X0645
X06488Y027
X063Y02775
Y02925
X06375Y03075
X06713Y03
X06675Y02925
X06713Y0285
X06637
X06225Y02775
X0615
Y02925
X06
X05925Y02775
X0585
X05775
X05812Y027
X05738
X05775Y02625
X0585
X05925
X06
X06075
X0615
X06225
X057
X05588Y027
X05625Y02775
X0555
X05588Y0285
X05475Y02925
X05325
X0525
X05287Y0285
X05325Y02775
X05175Y02625
X051
X05025
X0495
X04762Y0285
X04688
X04725Y02925
X057Y03075
X0465
Y02925
Y03225
Y03375
Y03525
Y03675
Y03825
Y03975
Y04125
Y04275
Y04425
Y04575
X04725
X048
X04762Y0465
X04688
Y045
X04762
X04725Y04425
X04762Y0435
X04688
X04725Y04275
X048
X04762Y042
X04688
X04725Y04125
X04762Y0405
X04688
X04725Y03975
X04688Y039
X04725Y03825
X04688Y0375
X04725Y03675
X04688Y036
X04725Y03525
X04688Y0345
X04725Y03375
X04688Y033
Y0315
X0495Y03375
X04912Y0345
X0495Y03525
X04912Y036
X04838
X0495Y03675
X04912Y0375
X0495Y03825
X04875
X04912Y039
X05062
X051Y03975
X05175
X05137Y0405
X05363
X054Y04125
X05475
X0555
X05662Y042
X05812
X05887
X05963
X06037
X06113
X06188
X06225Y04125
X0615
X06075
Y04275
X0615
X06037Y0435
Y045
X06Y04575
X06037Y0465
X05812
X05775Y04575
X057
X05625
X0555
X05588Y045
X05662
X05738
X0585Y04425
Y04275
X05812Y0405
X0585Y03975
X05775
X05738Y039
X05662
X057Y03825
X05775
X05625
X0555
X05588Y0375
X05662
X057Y03675
X05625
Y03525
X057
X05812Y036
X05887
X05963
X06Y03525
X05925
X0615
X06075Y03675
X06113Y0375
X06037
X05887
X06113Y039
X06188Y045
X05438Y042
X05363
X05325Y04125
X05213Y042
X054Y03975
X05363Y039
X054Y03825
X05438Y0375
X05363
X054Y03675
Y03525
X05325
X0525
X05287Y036
X05213
X05137
X05213Y0375
X05062Y0345
X05287Y033
X05325Y03225
X05287Y0315
X05475Y03375
X05963Y033
X06Y03225
X06037Y0315
X05963
X04988Y0465
X0645Y04575
X06713Y0465
Y045
Y0435
Y042
X06675Y04125
X066
X06525
X0645
X06375
X063
Y03975
X06338Y039
X06412
X0645Y03975
X06525
X06488Y0405
X0645Y03825
X06375
X063
X06338Y0375
X06375Y03675
Y03525
X06488Y036
X06637
X06713
Y0375
Y039
X066Y03675
X06637Y0345
X06713
Y033
X06637
Y0315
X06713
X06375Y04275
X0645Y04725
X06488Y048
X06412
X0645Y04875
X06225
X0615
X06225Y04725
X06
X05775
X0555
X0495Y04875
X0465Y04725
T02
X04895Y031
X05855
X05755Y03245
X0566Y0325
X0603Y03322
X06165Y03365
X0621Y03805
X05902Y04477
X05645Y0433
X05627Y04255
X05525Y04397
X05247Y0442
X05239Y04475
X05245Y04355
X05315Y04213
X05343Y04568
X0517Y0457
X05155Y0453
X05239Y04644
X04955Y0325
X06355Y0326
X06495Y03255
X06285Y034
X06348Y0422
X06355Y04334
Y0438
X0642Y04415
X06425Y04525
X06335Y04475
X06558Y04405
X06414Y04689
X06Y04906
X05775
X05619
X05545Y0484
X05383Y04742
X0522Y04745
X05015Y04733
X05128Y04906
X05298Y04895
T03
X0627Y0268
X0637
X0617
X0607
X0597
X0587
X05535
X05435
X05335
X05235
X05135
X05035
X05203Y0406
X05303
X05545Y04207
X05627Y044
X061Y0445
Y0435
Y0455
Y0465
X05983Y0406
X05883
X0497Y04198
X0484Y04225
Y04125
Y04325
Y04425
Y04525
Y04625
X0493Y0438
X06504Y04185
X06563Y0406
X06663
X0633Y0485
X061
Y0475
T04
X05619Y0467
X05719
T05
X06363Y02899
X06511
X06215
X05831
X05683
X05535
X05151
X05003
X04855
Y03499
Y03698
Y03896
X05151
Y03698
Y03499
X05535
Y03698
Y03896
X05831
Y03698
Y03499
X06215
Y03698
Y03896
X06511
Y03698
Y03499
T06
X0664Y02695
X04775
X0664Y04815
X04775
M30
